<?xml version="1.0" standalone="no"?>
<svg xmlns:xlink="http://www.w3.org/1999/xlink" id="wave" style="transform:rotate(180deg); transition: 0.3s" viewBox="0 0 1440 170" version="1.1" xmlns="http://www.w3.org/2000/svg"><defs><linearGradient id="sw-gradient-0" x1="0" x2="0" y1="1" y2="0"><stop stop-color="rgba(230.276, 116.337, 31.933, 1)" offset="0%"/><stop stop-color="rgba(225.722, 21.107, 184.423, 1)" offset="100%"/></linearGradient></defs><path style="transform:translate(0, 0px); opacity:1" fill="url(#sw-gradient-0)" d="M0,34L240,48.2C480,62,960,91,1440,90.7C1920,91,2400,62,2880,53.8C3360,45,3840,57,4320,53.8C4800,51,5280,34,5760,31.2C6240,28,6720,40,7200,39.7C7680,40,8160,28,8640,31.2C9120,34,9600,51,10080,59.5C10560,68,11040,68,11520,65.2C12000,62,12480,57,12960,65.2C13440,74,13920,96,14400,99.2C14880,102,15360,85,15840,85C16320,85,16800,102,17280,104.8C17760,108,18240,96,18720,87.8C19200,79,19680,74,20160,79.3C20640,85,21120,102,21600,104.8C22080,108,22560,96,23040,85C23520,74,24000,62,24480,51C24960,40,25440,28,25920,25.5C26400,23,26880,28,27360,31.2C27840,34,28320,34,28800,34C29280,34,29760,34,30240,36.8C30720,40,31200,45,31680,56.7C32160,68,32640,85,33120,82.2C33600,79,34080,57,34320,45.3L34560,34L34560,170L34320,170C34080,170,33600,170,33120,170C32640,170,32160,170,31680,170C31200,170,30720,170,30240,170C29760,170,29280,170,28800,170C28320,170,27840,170,27360,170C26880,170,26400,170,25920,170C25440,170,24960,170,24480,170C24000,170,23520,170,23040,170C22560,170,22080,170,21600,170C21120,170,20640,170,20160,170C19680,170,19200,170,18720,170C18240,170,17760,170,17280,170C16800,170,16320,170,15840,170C15360,170,14880,170,14400,170C13920,170,13440,170,12960,170C12480,170,12000,170,11520,170C11040,170,10560,170,10080,170C9600,170,9120,170,8640,170C8160,170,7680,170,7200,170C6720,170,6240,170,5760,170C5280,170,4800,170,4320,170C3840,170,3360,170,2880,170C2400,170,1920,170,1440,170C960,170,480,170,240,170L0,170Z"/></svg>