<?xml version="1.0" standalone="no"?>
<svg xmlns:xlink="http://www.w3.org/1999/xlink" id="wave" style="transform:rotate(0deg); transition: 0.3s" viewBox="0 0 1440 280" version="1.1" xmlns="http://www.w3.org/2000/svg"><defs><linearGradient id="sw-gradient-0" x1="0" x2="0" y1="1" y2="0"><stop stop-color="rgba(230.276, 116.337, 31.933, 1)" offset="0%"/><stop stop-color="rgba(225.722, 21.107, 184.423, 1)" offset="100%"/></linearGradient></defs><path style="transform:translate(0, 0px); opacity:1" fill="url(#sw-gradient-0)" d="M0,56L240,79.3C480,103,960,149,1440,149.3C1920,149,2400,103,2880,88.7C3360,75,3840,93,4320,88.7C4800,84,5280,56,5760,51.3C6240,47,6720,65,7200,65.3C7680,65,8160,47,8640,51.3C9120,56,9600,84,10080,98C10560,112,11040,112,11520,107.3C12000,103,12480,93,12960,107.3C13440,121,13920,159,14400,163.3C14880,168,15360,140,15840,140C16320,140,16800,168,17280,172.7C17760,177,18240,159,18720,144.7C19200,131,19680,121,20160,130.7C20640,140,21120,168,21600,172.7C22080,177,22560,159,23040,140C23520,121,24000,103,24480,84C24960,65,25440,47,25920,42C26400,37,26880,47,27360,51.3C27840,56,28320,56,28800,56C29280,56,29760,56,30240,60.7C30720,65,31200,75,31680,93.3C32160,112,32640,140,33120,135.3C33600,131,34080,93,34320,74.7L34560,56L34560,280L34320,280C34080,280,33600,280,33120,280C32640,280,32160,280,31680,280C31200,280,30720,280,30240,280C29760,280,29280,280,28800,280C28320,280,27840,280,27360,280C26880,280,26400,280,25920,280C25440,280,24960,280,24480,280C24000,280,23520,280,23040,280C22560,280,22080,280,21600,280C21120,280,20640,280,20160,280C19680,280,19200,280,18720,280C18240,280,17760,280,17280,280C16800,280,16320,280,15840,280C15360,280,14880,280,14400,280C13920,280,13440,280,12960,280C12480,280,12000,280,11520,280C11040,280,10560,280,10080,280C9600,280,9120,280,8640,280C8160,280,7680,280,7200,280C6720,280,6240,280,5760,280C5280,280,4800,280,4320,280C3840,280,3360,280,2880,280C2400,280,1920,280,1440,280C960,280,480,280,240,280L0,280Z"/></svg>